#!OML:ASF F:\VICON\USERDATA\INSTALL\rory3\rory3.ASF
:FULLY-SPECIFIED
:DEGREES
1480
root -8.79025 17.6171 -0.307457 210.25 100.11 200.49
lowerback 5.53332 0.148857 -5.70296
upperback 1.36771 -0.0890439 0.660852
thorax -1.67926 -0.0168313 3.89382
lowerneck -16.7686 1.15037 -7.87923
upperneck 38.6795 6.87648 -1.45306
head 16.6911 1.9199 2.16305
rclavicle 3.97569e-015 9.54166e-015
rhumerus -35.8779 -3.64047 -79.8954
rradius 43.726
rwrist 20.9718
rhand -22.8065 4.22305
rfingers 7.12502
rthumb 3.63 -25.7258
lclavicle 3.97569e-015 9.54166e-015
lhumerus -25.2862 -4.73617 85.1499
lradius 49.6201
lwrist -11.4832
lhand -17.1338 14.1941
lfingers 7.12502
lthumb 9.10626 43.9775
rfemur -38.0043 -8.67591 20.7731
rtibia 23.0241
rfoot -6.9455 -20.1161
rtoes 21.3095
lfemur -1.4848 3.04474 -25.0468
ltibia 19.8019
lfoot -14.3322 18.3936
ltoes -29.6476
1481
root -8.71083 17.6164 -0.269301 209.021 100.691 199.202
lowerback 5.55633 0.240742 -5.61418
upperback 1.41462 0.0396185 0.727708
thorax -1.65777 0.0455398 3.90434
lowerneck -16.8882 1.19744 -8.00222
upperneck 38.6931 6.91022 -1.2554
head 16.7073 1.9367 2.27951
rclavicle 3.77691e-015 1.19271e-015
rhumerus -35.704 -3.58168 -79.8359
rradius 43.3717
rwrist 21.2649
rhand -22.9527 4.4074
rfingers 7.12502
rthumb 3.48879 -25.5438
lclavicle 3.77691e-015 1.19271e-015
lhumerus -25.2363 -4.7763 85.2965
lradius 49.9117
lwrist -11.2936
lhand -18.0544 14.4266
lfingers 7.12502
lthumb 8.21784 44.2468
rfemur -38.0383 -8.45339 20.9581
rtibia 23.3459
rfoot -6.01389 -19.521
rtoes 21.8222
lfemur -1.63746 3.05016 -25.0653
ltibia 20.6553
lfoot -14.254 18.7904
ltoes -30.3052
1482
root -8.63322 17.6221 -0.225067 206.818 101.302 196.768
lowerback 5.4302 0.318387 -5.3841
upperback 1.39861 0.162644 0.782131
thorax -1.61726 0.104948 3.8224
lowerneck -16.942 1.31484 -7.72768
upperneck 38.7217 6.98203 -1.24741
head 16.7373 2.00056 2.24993
rclavicle -3.47873e-014 -1.31198e-014
rhumerus -35.4697 -3.03035 -80.0605
rradius 42.9383
rwrist 21.0485
rhand -23.1389 4.65776
rfingers 7.12502
rthumb 3.30895 -25.2963
lclavicle -3.47873e-014 -1.31198e-014
lhumerus -25.2666 -4.65437 85.2099
lradius 50.1756
lwrist -11.2501
lhand -19.7191 14.7443
lfingers 7.12502
lthumb 6.61094 44.6211
rfemur -38.2477 -8.16696 21.4972
rtibia 23.7535
rfoot -5.22068 -18.9594
rtoes 22.4509
lfemur -1.97018 3.18607 -24.8012
ltibia 21.5509
lfoot -14.2312 19.0287
ltoes -30.7027
1483
root -8.56143 17.6307 -0.180106 205.584 101.869 195.354
lowerback 5.43195 0.329542 -5.32252
upperback 1.35608 0.178798 0.777105
thorax -1.66388 0.114686 3.78133
lowerneck -16.7961 1.50589 -7.27892
upperneck 38.6055 7.08953 -1.3185
head 16.6488 2.10412 2.15133
rclavicle 1.14301e-014 -7.55382e-015
rhumerus -35.229 -2.72308 -80.3772
rradius 42.5155
rwrist 21.0812
rhand -23.0268 4.78032
rfingers 7.12502
rthumb 3.4172 -25.172
lclavicle 1.14301e-014 -7.55382e-015
lhumerus -25.3346 -4.38523 85.0178
lradius 50.3489
lwrist -11.3982
lhand -20.2234 14.892
lfingers 7.12502
lthumb 6.12413 44.7834
rfemur -38.4045 -7.96168 21.8793
rtibia 24.148
rfoot -4.7594 -18.4989
rtoes 22.9334
lfemur -2.33671 3.19664 -24.6472
ltibia 22.5248
lfoot -14.2585 19.1615
ltoes -30.7066
1484
root -8.48775 17.6355 -0.133413 206.01 102.524 195.851
lowerback 5.63808 0.247656 -5.75798
upperback 1.41228 0.0374396 0.854561
thorax -1.70544 0.0461682 4.11795
lowerneck -16.8794 1.75034 -7.39946
upperneck 38.5635 7.45658 -1.23982
head 16.6217 2.2432 2.27124
rclavicle -1.78906e-014 1.27222e-014
rhumerus -34.8223 -2.20275 -80.501
rradius 42.1497
rwrist 21.1906
rhand -22.8126 4.69213
rfingers 7.12502
rthumb 3.62407 -25.2568
lclavicle -1.78906e-014 1.27222e-014
lhumerus -25.4074 -3.66744 84.9997
lradius 50.5421
lwrist -11.4102
lhand -19.244 14.8537
lfingers 7.12502
lthumb 7.06958 44.7156
rfemur -38.3119 -8.00883 21.8304
rtibia 24.4549
rfoot -4.68863 -17.8916
rtoes 22.8041
lfemur -2.5366 3.38178 -24.8771
ltibia 23.5884
lfoot -14.0926 19.1272
ltoes -31.2554
1485
root -8.40807 17.641 -0.0892112 204.636 103.082 194.482
lowerback 5.77735 0.128333 -5.72764
upperback 1.46827 -0.120214 1.13065
thorax -1.7065 -0.0333983 4.40012
lowerneck -17.1211 2.00398 -7.77699
upperneck 38.7091 7.98822 -1.16434
head 16.7201 2.40097 2.47519
rclavicle -5.56597e-015 -1.66979e-014
rhumerus -34.3567 -1.47052 -80.5114
rradius 41.8073
rwrist 21.257
rhand -22.6991 4.41713
rfingers 7.12502
rthumb 3.73368 -25.5299
lclavicle -5.56597e-015 -1.66979e-014
lhumerus -25.5388 -2.72075 85.0641
lradius 50.7096
lwrist -11.484
lhand -18.6066 14.8904
lfingers 7.12502
lthumb 7.68483 44.7308
rfemur -38.1949 -8.04257 22.2744
rtibia 24.7344
rfoot -4.65977 -17.1306
rtoes 22.2752
lfemur -2.76186 3.5283 -24.6938
ltibia 24.6852
lfoot -13.7615 19.2955
ltoes -32.0215
1486
root -8.32716 17.6503 -0.0434438 202.754 103.545 192.565
lowerback 5.80404 0.0187795 -5.50117
upperback 1.50593 -0.246771 1.42407
thorax -1.66721 -0.0989603 4.587
lowerneck -17.1872 2.18837 -8.07694
upperneck 38.842 8.37837 -1.10721
head 16.7759 2.51564 2.62694
rclavicle -2.08724e-015 -1.19271e-014
rhumerus -34.02 -1.39239 -80.431
rradius 41.4959
rwrist 21.9575
rhand -22.8278 4.49903
rfingers 7.12502
rthumb 3.60934 -25.4502
lclavicle -2.08724e-015 -1.19271e-014
lhumerus -25.704 -2.199 85.098
lradius 50.8206
lwrist -11.3473
lhand -18.9954 15.2715
lfingers 7.12502
lthumb 7.30959 45.1252
rfemur -38.0444 -7.91551 22.8346
rtibia 24.9791
rfoot -4.53353 -16.4531
rtoes 22.6982
lfemur -3.01624 3.52841 -24.3152
ltibia 25.8219
lfoot -13.4426 19.4771
ltoes -32.6892
1487
root -8.24669 17.6595 0.00987821 202.431 104.029 192.271
lowerback 5.82203 -0.131394 -5.78049
upperback 1.52649 -0.457632 1.68998
thorax -1.62523 -0.205138 5.03867
lowerneck -17.0986 2.3863 -8.45627
upperneck 38.8921 8.77033 -1.01433
head 16.74 2.63409 2.79841
rclavicle 1.35174e-014 -1.59028e-014
rhumerus -33.772 -1.322 -80.3445
rradius 41.2426
rwrist 22.8805
rhand -23.0946 4.61822
rfingers 7.12502
rthumb 3.35176 -25.3352
lclavicle 1.35174e-014 -1.59028e-014
lhumerus -25.9135 -1.70653 85.1908
lradius 50.8891
lwrist -11.0795
lhand -19.588 15.959
lfingers 7.12502
lthumb 6.73757 45.8318
rfemur -37.8473 -7.88622 22.999
rtibia 25.1277
rfoot -4.24825 -15.7395
rtoes 24.0151
lfemur -3.32608 3.60606 -24.2569
ltibia 27.0628
lfoot -12.9641 19.3884
ltoes -33.2899
1488
root -8.16364 17.6696 0.0644186 202.172 104.544 192.027
lowerback 5.81711 -0.183198 -6.00326
upperback 1.56508 -0.53497 1.83917
thorax -1.56812 -0.245989 5.32699
lowerneck -17.0974 2.53752 -8.54101
upperneck 38.9859 9.03023 -0.988325
head 16.7715 2.72581 2.87264
rclavicle -4.39314e-014 -6.36111e-015
rhumerus -33.4714 -0.733701 -80.5336
rradius 40.9144
rwrist 22.8006
rhand -23.1488 4.62353
rfingers 7.12502
rthumb 3.29936 -25.3307
lclavicle -4.39314e-014 -6.36111e-015
lhumerus -25.9873 -1.37327 85.2379
lradius 50.8491
lwrist -11.1527
lhand -19.9071 16.2216
lfingers 7.12502
lthumb 6.42949 46.104
rfemur -37.6572 -7.87614 23.1672
rtibia 25.243
rfoot -3.98342 -15.0231
rtoes 24.2529
lfemur -3.69762 3.7871 -24.2144
ltibia 28.3779
lfoot -12.3865 19.1961
ltoes -33.5479
1489
root -8.08125 17.683 0.115415 201.287 104.975 191.172
lowerback 5.89478 -0.135286 -5.85799
upperback 1.60703 -0.464898 1.86522
thorax -1.57879 -0.211589 5.26736
lowerneck -17.1187 2.59572 -8.27116
upperneck 39.1622 9.05355 -0.995915
head 16.8817 2.76192 2.836
rclavicle 1.66979e-014 -2.50469e-014
rhumerus -33.2415 -0.234712 -80.829
rradius 40.5713
rwrist 22.383
rhand -22.8561 4.8032
rfingers 7.12502
rthumb 3.58207 -25.1464
lclavicle 1.66979e-014 -2.50469e-014
lhumerus -25.9387 -1.55978 85.2056
lradius 50.6744
lwrist -11.1306
lhand -20.4231 16.5274
lfingers 7.12502
lthumb 5.93131 46.4244
rfemur -37.422 -7.94702 23.5671
rtibia 25.372
rfoot -3.86513 -14.3675
rtoes 23.6098
lfemur -4.07908 4.18887 -23.9204
ltibia 29.7403
lfoot -11.6471 18.7253
ltoes -33.8006
1490
root -7.99821 17.6987 0.176107 200.55 105.444 190.436
lowerback 5.90208 -0.0417958 -5.92366
upperback 1.63568 -0.342267 1.94239
thorax -1.56847 -0.15113 5.3772
lowerneck -17.134 2.58813 -8.09369
upperneck 39.3783 8.99057 -0.939668
head 17.008 2.75771 2.82931
rclavicle 5.54609e-014 -1.66979e-014
rhumerus -33.106 0.143103 -81.0162
rradius 40.3636
rwrist 22.0722
rhand -22.7677 4.95222
rfingers 7.12502
rthumb 3.66739 -24.996
lclavicle 5.54609e-014 -1.66979e-014
lhumerus -25.848 -1.81779 85.2393
lradius 50.3739
lwrist -11.04
lhand -20.9267 16.9353
lfingers 7.12502
lthumb 5.44511 46.8453
rfemur -37.1099 -7.84556 23.9102
rtibia 25.3995
rfoot -3.82998 -13.8556
rtoes 23.6395
lfemur -4.57896 4.64019 -23.5785
ltibia 31.2841
lfoot -11.0355 18.0964
ltoes -33.7646
1491
root -7.91153 17.7143 0.249805 200.024 106.062 189.958
lowerback 5.83201 0.115774 -6.2087
upperback 1.69312 -0.143576 1.95565
thorax -1.49529 -0.0554563 5.53899
lowerneck -17.1837 2.5736 -7.85544
upperneck 39.647 8.87908 -0.818157
head 17.171 2.7485 2.83613
rclavicle -6.06293e-014 3.65764e-014
rhumerus -32.9822 0.602305 -81.2959
rradius 40.2023
rwrist 21.5237
rhand -22.9307 4.87974
rfingers 7.12502
rthumb 3.51006 -25.0711
lclavicle -6.06293e-014 3.65764e-014
lhumerus -25.7701 -2.15686 85.1267
lradius 50.0408
lwrist -11.153
lhand -21.2769 17.0995
lfingers 7.12502
lthumb 5.10696 47.018
rfemur -36.6591 -7.56414 24.1355
rtibia 25.3235
rfoot -3.72376 -13.3753
rtoes 24.1395
lfemur -5.06403 4.80162 -23.3677
ltibia 32.977
lfoot -10.3717 17.8008
ltoes -33.7883
1492
root -7.832 17.7311 0.318828 199.658 106.582 189.081
lowerback 5.27224 0.212329 -6.22289
upperback 1.59368 0.0128253 1.96482
thorax -1.30809 0.0173 5.54341
lowerneck -17.2049 2.56262 -7.65143
upperneck 39.8537 8.76769 -0.692406
head 17.2919 2.73937 2.84687
rclavicle -2.68359e-014 -5.56597e-015
rhumerus -32.8462 0.912287 -81.5665
rradius 40.0499
rwrist 21.119
rhand -23.1511 4.5525
rfingers 7.12502
rthumb 3.29717 -25.4018
lclavicle -2.68359e-014 -5.56597e-015
lhumerus -25.618 -2.42315 84.9381
lradius 49.5816
lwrist -11.5688
lhand -21.5951 17.2503
lfingers 7.12502
lthumb 4.79971 47.1759
rfemur -36.8194 -7.35319 24.6159
rtibia 25.1703
rfoot -3.51794 -12.9821
rtoes 24.3499
lfemur -6.29376 4.74357 -23.0893
ltibia 34.8252
lfoot -9.4703 17.5081
ltoes -33.6302
1493
root -7.75164 17.7489 0.375912 198.781 107.113 188.108
lowerback 5.1619 0.305323 -6.13851
upperback 1.60895 0.148569 2.01044
thorax -1.24997 0.0826048 5.53426
lowerneck -17.1813 2.55421 -7.5526
upperneck 39.9748 8.64679 -0.506781
head 17.3442 2.7245 2.89437
rclavicle 4.53229e-014 -3.1408e-014
rhumerus -32.7603 1.05105 -81.7484
rradius 40.1165
rwrist 21.0242
rhand -23.3244 4.09448
rfingers 7.12502
rthumb 3.12984 -25.8623
lclavicle 4.53229e-014 -3.1408e-014
lhumerus -25.4474 -2.60747 84.7827
lradius 49.0951
lwrist -12.0074
lhand -21.7314 17.5938
lfingers 7.12502
lthumb 4.66817 47.5224
rfemur -36.5259 -7.2446 25.0815
rtibia 25.0618
rfoot -3.45064 -12.5262
rtoes 23.8967
lfemur -7.11461 4.75768 -22.7356
ltibia 36.7714
lfoot -8.59655 17.0211
ltoes -32.3483
1494
root -7.67301 17.7607 0.425952 198.016 107.731 187.444
lowerback 5.16629 0.41513 -6.02915
upperback 1.76272 0.3039 1.95426
thorax -1.11438 0.152329 5.40305
lowerneck -17.2332 2.55221 -7.30396
upperneck 40.023 8.49901 -0.392633
head 17.3889 2.70952 2.87896
rclavicle -1.94809e-014 -1.59028e-014
rhumerus -32.5018 -0.00368381 -81.734
rradius 40.2679
rwrist 21.9466
rhand -23.0026 4.32417
rfingers 7.12502
rthumb 3.44059 -25.6278
lclavicle -1.94809e-014 -1.59028e-014
lhumerus -25.1571 -2.92348 84.5482
lradius 48.653
lwrist -12.2198
lhand -21.9761 18.1212
lfingers 7.12502
lthumb 4.43189 48.0548
rfemur -36.0397 -7.08235 25.3901
rtibia 25.0104
rfoot -3.39568 -11.9741
rtoes 23.4045
lfemur -7.7287 4.60348 -22.5294
ltibia 38.6428
lfoot -7.43596 16.67
ltoes -30.6793
